<svg id="Lag_1" data-name="Lag 1" xmlns="http://www.w3.org/2000/svg" viewBox="0 0 37 23">
  <defs>
    <style>
      .cls-1 {
        fill: #002065;
      }

      .cls-2 {
        fill: #fff;
      }

      .cls-3 {
        fill: #bd2e33;
      }
    </style>
  </defs>
  <rect class="cls-1" x="-0.44" y="-0.31" width="37.56" height="23.59"/>
  <g>
    <rect class="cls-2" x="16.26" y="-11.15" width="4.33" height="45.53" transform="translate(-1.16 21.15) rotate(-58.16)"/>
    <rect class="cls-3" x="8.06" y="-4.93" width="1.8" height="22.28" transform="translate(-1.04 10.54) rotate(-58.16)"/>
    <rect class="cls-3" x="27.64" y="6.16" width="1.8" height="22.28" transform="translate(-1.22 32.41) rotate(-58.16)"/>
  </g>
  <g>
    <rect class="cls-2" x="16.05" y="-11.55" width="4.33" height="45.53" transform="translate(18.29 32.61) rotate(-121.84)"/>
    <rect class="cls-3" x="26.88" y="-6.59" width="1.8" height="22.28" transform="translate(38.57 30.54) rotate(-121.84)"/>
    <rect class="cls-3" x="7.74" y="6.79" width="1.8" height="22.28" transform="translate(-2.03 34.74) rotate(-121.84)"/>
  </g>
  <g>
    <rect class="cls-2" x="15.58" y="-7.29" width="5.14" height="38.14" transform="translate(6.38 29.93) rotate(-90)"/>
    <rect class="cls-2" x="15.21" y="-0.88" width="5.14" height="24.56"/>
  </g>
  <rect class="cls-3" x="16.44" y="-1.71" width="2.46" height="26.9"/>
  <rect class="cls-3" x="16.89" y="-8.03" width="2.46" height="39.55" transform="translate(6.37 29.86) rotate(-90)"/>
</svg>
